PathFileType	4	(X/Y/Z)	/Users/itak/Documents/Research/Walk-IL/dataset/trc/00499_00183.trc
DataRate	CameraRate	NumFrames	NumMarkers	Units	OrigDataRate	OrigDataStartFrame	OrigNumFrames
100.000000	100.000000	4	53	mm	100.000000	0	671
Frame#	Time	RPSI			LPSI			L3			STRN			T10			C7			CLAV			RBAK			LBAK			LSHO			LUPA			LAEL			LAOL			LWTS			LWPS			LFRA			LIFD			LHPS			LHTS			RSHO			RUPA			RAEL			RAOL			RWTS			RWPS			RFRA			RIFD			RHTS			RHPS			RBHD			LFHD			RFHD			LBHD			LHIP			RHIP			RASI			LASI			LKNE			LTHI			LANK			LTIP			LTOE			LMT1			LMT5			LHEE			RKNE			RTHI			RANK			RTIP			RTOE			RMT1			RMT5			RHEE			
		X1	Y1	Z1	X2	Y2	Z2	X3	Y3	Z3	X4	Y4	Z4	X5	Y5	Z5	X6	Y6	Z6	X7	Y7	Z7	X8	Y8	Z8	X9	Y9	Z9	X10	Y10	Z10	X11	Y11	Z11	X12	Y12	Z12	X13	Y13	Z13	X14	Y14	Z14	X15	Y15	Z15	X16	Y16	Z16	X17	Y17	Z17	X18	Y18	Z18	X19	Y19	Z19	X20	Y20	Z20	X21	Y21	Z21	X22	Y22	Z22	X23	Y23	Z23	X24	Y24	Z24	X25	Y25	Z25	X26	Y26	Z26	X27	Y27	Z27	X28	Y28	Z28	X29	Y29	Z29	X30	Y30	Z30	X31	Y31	Z31	X32	Y32	Z32	X33	Y33	Z33	X34	Y34	Z34	X35	Y35	Z35	X36	Y36	Z36	X37	Y37	Z37	X38	Y38	Z38	X39	Y39	Z39	X40	Y40	Z40	X41	Y41	Z41	X42	Y42	Z42	X43	Y43	Z43	X44	Y44	Z44	X45	Y45	Z45	X46	Y46	Z46	X47	Y47	Z47	X48	Y48	Z48	X49	Y49	Z49	X50	Y50	Z50	X51	Y51	Z51	X52	Y52	Z52	X53	Y53	Z53	

1	0	-1172.469604492188	975.6275024414062	-410.947509765625	-1112.4248046875	973.4205322265625	-519.6425170898438	-1158.949951171875	1031.646362304688	-475.8777465820312	-952.9734497070312	1201.228271484375	-393.2551574707031	-1174.60986328125	1138.320678710938	-479.1146545410156	-1133.156616210938	1369.069580078125	-465.6765441894531	-986.93115234375	1295.765625	-409.1586608886719	-1207.900024414062	1248.666381835938	-400.0989685058594	-1124.717529296875	1312.942504882812	-554.5487060546875	-1009.859313964844	1358.817626953125	-590.8159790039062	-998.1348266601562	1231.819458007812	-649.8568115234375	-982.7083129882812	1021.961364746094	-669.5459594726562	-1074.977294921875	1014.08447265625	-632.6375732421875	-911.7417602539062	837.2073974609375	-599.2026977539062	-968.4177856445312	801.3631591796875	-665.37109375	-966.4942626953125	941.2739868164062	-664.4483642578125	-909.9375610351562	680.6470336914062	-587.8304443359375	-946.1292114257812	747.0979614257812	-651.9773559570312	-894.2597045898438	759.6775512695312	-613.6990356445312	-1134.817504882812	1367.359008789062	-306.6064453125	-1169.562622070312	1299.8486328125	-257.5991821289062	-1165.800537109375	1031.369384765625	-211.4587249755859	-1205.285522460938	1014.281127929688	-262.0419311523438	-1053.928955078125	831.8749389648438	-218.3125610351562	-1137.886352539062	807.4740600585938	-191.8477478027344	-1160.767333984375	977.2335205078125	-203.6239776611328	-1048.073120117188	672.9127197265625	-219.1677856445312	-1043.581420898438	738.4000854492188	-191.9301147460938	-1114.162109375	734.0849609375	-186.4465942382812	-1135.13818359375	1525.854125976562	-386.2106018066406	-955.6822509765625	1590.453002929688	-449.7878723144531	-1019.974487304688	1585.842529296875	-339.1870422363281	-1068.6025390625	1527.655151367188	-531.1514892578125	-962.0287475585938	898.398681640625	-591.58154296875	-1135.01123046875	869.233642578125	-256.7294616699219	-1015.605285644531	909.5369873046875	-267.9500427246094	-909.4623413085938	925.1216430664062	-486.4869995117188	-986.1436767578125	474.4001159667969	-571.0841674804688	-958.9834594726562	632.5343017578125	-578.2761840820312	-1072.794067382812	48.4813232421875	-595.911865234375	-1017.492614746094	326.6612854003906	-588.1983642578125	-923.8606567382812	40.92112731933594	-455.47802734375	-1006.529235839844	46.38939666748047	-459.80810546875	-971.6956787109375	45.37520980834961	-555.671142578125	-1141.774658203125	47.55514526367188	-560.0864868164062	-1154.14990234375	484.8121948242188	-277.649169921875	-1123.615478515625	742.0255126953125	-239.6800231933594	-1185.783447265625	47.8587532043457	-320.8622436523438	-1153.967651367188	343.5722351074219	-288.6925659179688	-980.2994384765625	43.6188850402832	-310.8709106445312	-1035.3369140625	52.45145416259766	-362.1253051757812	-1080.26025390625	46.33806228637695	-275.6082763671875	-1221.188110351562	37.97426223754883	-381.4110412597656	
2	0.01	-1172.431762695312	975.6212158203125	-410.9133605957031	-1112.398193359375	973.4310302734375	-519.58056640625	-1158.897338867188	1031.63720703125	-475.8233947753906	-952.9743041992188	1201.187866210938	-393.1917114257812	-1174.57470703125	1138.337768554688	-479.0178527832031	-1133.10302734375	1369.061767578125	-465.6004333496094	-986.875244140625	1295.755859375	-409.0896606445312	-1207.8466796875	1248.66357421875	-400.0423889160156	-1124.674682617188	1312.946411132812	-554.480224609375	-1009.839477539062	1358.821411132812	-590.7575073242188	-998.1071166992188	1231.81640625	-649.8121337890625	-982.704833984375	1021.971008300781	-669.5150756835938	-1074.939697265625	1014.1015625	-632.5775756835938	-911.7203979492188	837.2115478515625	-599.1771240234375	-968.4061279296875	801.3560180664062	-665.3394775390625	-966.48974609375	941.274658203125	-664.4089965820312	-909.946533203125	680.6459350585938	-587.829345703125	-946.0972290039062	747.0781860351562	-651.93017578125	-894.2383422851562	759.683349609375	-613.683349609375	-1134.763793945312	1367.347778320312	-306.5247192382812	-1169.521240234375	1299.83447265625	-257.5044860839844	-1165.75390625	1031.350341796875	-211.4075622558594	-1205.251586914062	1014.271057128906	-261.9966735839844	-1053.899291992188	831.8557739257812	-218.2953033447266	-1137.848754882812	807.4598999023438	-191.8255310058594	-1160.711791992188	977.2103881835938	-203.5894317626953	-1048.041137695312	672.8876953125	-219.1772155761719	-1043.5400390625	738.37158203125	-191.9443054199219	-1114.131225585938	734.06494140625	-186.4228210449219	-1135.045776367188	1525.877685546875	-386.0889282226562	-955.6039428710938	1590.44189453125	-449.7486877441406	-1019.824340820312	1585.7998046875	-339.08251953125	-1068.508666992188	1527.683349609375	-531.0545654296875	-961.9498291015625	898.4046020507812	-591.4968872070312	-1134.987426757812	869.2384033203125	-256.6826477050781	-1015.582214355469	909.5192260742188	-267.8884582519531	-909.4577026367188	925.1282958984375	-486.4501647949219	-986.1118774414062	474.388671875	-571.0491333007812	-959.0023193359375	632.5404052734375	-578.2669677734375	-1072.79736328125	48.4832649230957	-595.9057006835938	-1017.474487304688	326.6746520996094	-588.1526489257812	-923.8549194335938	40.91098022460938	-455.4735107421875	-1006.532653808594	46.38085174560547	-459.8059387207031	-971.6878662109375	45.37734222412109	-555.6633911132812	-1141.7861328125	47.55922698974609	-560.0680541992188	-1154.146728515625	484.8045349121094	-277.6246643066406	-1123.578247070312	742.0162963867188	-239.6482849121094	-1185.7890625	47.85559844970703	-320.8544311523438	-1153.972534179688	343.5775756835938	-288.6739501953125	-980.29541015625	43.62112045288086	-310.86279296875	-1035.369995117188	52.46929168701172	-362.1245422363281	-1080.269653320312	46.33951568603516	-275.599609375	-1221.251098632812	38.06426620483398	-381.4404907226562	
3	0.02	-1172.385986328125	975.6133422851562	-410.8694152832031	-1112.364501953125	973.4418334960938	-519.505126953125	-1158.833740234375	1031.62841796875	-475.7532958984375	-952.9745483398438	1201.13916015625	-393.1162414550781	-1174.532348632812	1138.357177734375	-478.8996887207031	-1133.039306640625	1369.05419921875	-465.5021667480469	-986.807861328125	1295.74267578125	-409.0069274902344	-1207.7822265625	1248.659057617188	-399.9738464355469	-1124.619384765625	1312.952270507812	-554.3970947265625	-1009.813781738281	1358.827514648438	-590.6837158203125	-998.073974609375	1231.814208984375	-649.7565307617188	-982.6986694335938	1021.983215332031	-669.4728393554688	-1074.885009765625	1014.123962402344	-632.4968872070312	-911.6900024414062	837.2168579101562	-599.1452026367188	-968.3875122070312	801.3478393554688	-665.30078125	-966.4801635742188	941.2788696289062	-664.359619140625	-909.9645385742188	680.642333984375	-587.826416015625	-946.0731201171875	747.0672607421875	-651.88134765625	-894.20751953125	759.6943359375	-613.6630859375	-1134.7001953125	1367.332641601562	-306.4263000488281	-1169.470581054688	1299.818481445312	-257.3909912109375	-1165.6953125	1031.32666015625	-211.3459014892578	-1205.20751953125	1014.2568359375	-261.9407653808594	-1053.861206054688	831.8310546875	-218.2706604003906	-1137.803833007812	807.4426879882812	-191.7974853515625	-1160.64404296875	977.181884765625	-203.5444946289062	-1047.999633789062	672.8533325195312	-219.1862030029297	-1043.489990234375	738.3329467773438	-191.9551239013672	-1114.09521484375	734.0399169921875	-186.393798828125	-1134.93115234375	1525.9052734375	-385.9395751953125	-955.5076293945312	1590.423828125	-449.6976928710938	-1019.638061523438	1585.744262695312	-338.9536743164062	-1068.393432617188	1527.716552734375	-530.931396484375	-961.8780517578125	898.4100341796875	-591.4014282226562	-1135.007568359375	869.2823486328125	-256.6587219238281	-1015.550598144531	909.4971313476562	-267.8138122558594	-909.4498901367188	925.1359252929688	-486.4029846191406	-986.0751342773438	474.3751525878906	-571.0072631835938	-959.0186767578125	632.5426025390625	-578.2501831054688	-1072.801025390625	48.48551177978516	-595.8969116210938	-1017.455139160156	326.6886901855469	-588.0991821289062	-923.8493041992188	40.89712142944336	-455.4652709960938	-1006.535278320312	46.37087631225586	-459.8027954101562	-971.6798095703125	45.37900924682617	-555.6546020507812	-1141.79931640625	47.56612777709961	-560.0463256835938	-1154.14306640625	484.7966918945312	-277.5983581542969	-1123.532470703125	742.0026245117188	-239.6111602783203	-1185.797241210938	47.85301208496094	-320.8447265625	-1153.979248046875	343.5823059082031	-288.6504516601562	-980.29248046875	43.62359237670898	-310.8531188964844	-1035.4052734375	52.48851013183594	-362.1223449707031	-1080.280517578125	46.33998107910156	-275.5898132324219	-1221.318969726562	38.15935897827148	-381.4711303710938	
4	0.03	-1172.334838867188	975.60400390625	-410.8168334960938	-1112.324584960938	973.4512329101562	-519.4214477539062	-1158.764526367188	1031.62158203125	-475.6704406738281	-952.9729614257812	1201.085571289062	-393.0337829589844	-1174.484985351562	1138.376708984375	-478.7676696777344	-1132.96923828125	1369.0478515625	-465.3846740722656	-986.7330932617188	1295.726196289062	-408.9158325195312	-1207.710327148438	1248.652587890625	-399.897216796875	-1124.553588867188	1312.959838867188	-554.3035278320312	-1009.782531738281	1358.83642578125	-590.5975952148438	-998.0370483398438	1231.813110351562	-649.6923217773438	-982.6903686523438	1021.997131347656	-669.4182739257812	-1074.810791015625	1014.149108886719	-632.3959350585938	-911.6510009765625	837.22265625	-599.1077880859375	-968.361083984375	801.3390502929688	-665.2568359375	-966.4636840820312	941.287841796875	-664.3019409179688	-909.9945068359375	680.6353759765625	-587.8211059570312	-946.06201171875	747.0687866210938	-651.8358154296875	-894.1666870117188	759.7112426757812	-613.6381225585938	-1134.630737304688	1367.313720703125	-306.3171997070312	-1169.412475585938	1299.801879882812	-257.2658081054688	-1165.627563476562	1031.29931640625	-211.2773895263672	-1205.154663085938	1014.238403320312	-261.8769226074219	-1053.815673828125	831.8013916015625	-218.2383422851562	-1137.754150390625	807.4231567382812	-191.7646179199219	-1160.568115234375	977.1494140625	-203.4911193847656	-1047.949829101562	672.8099365234375	-219.1923828125	-1043.43408203125	738.2847900390625	-191.9588012695312	-1114.055908203125	734.010986328125	-186.3612823486328	-1134.799926757812	1525.93505859375	-385.7696838378906	-955.3963623046875	1590.3974609375	-449.6354675292969	-1019.425842285156	1585.677490234375	-338.8075866699219	-1068.263305664062	1527.752685546875	-530.7864990234375	-961.8244018554688	898.413818359375	-591.3045043945312	-1135.089111328125	869.37744140625	-256.6720275878906	-1015.510498046875	909.4717407226562	-267.7305908203125	-909.4384765625	925.1434936523438	-486.3473510742188	-986.0360717773438	474.3603515625	-570.9612426757812	-959.030029296875	632.5394287109375	-578.2258911132812	-1072.8046875	48.48806381225586	-595.885986328125	-1017.435241699219	326.7027282714844	-588.0418090820312	-923.8436279296875	40.88008880615234	-455.4528198242188	-1006.536560058594	46.36008834838867	-459.7984313964844	-971.6724243164062	45.37988662719727	-555.64501953125	-1141.813232421875	47.5755615234375	-560.0231323242188	-1154.13916015625	484.7894592285156	-277.5726928710938	-1123.48046875	741.984375	-239.5706329345703	-1185.806762695312	47.85118865966797	-320.8341369628906	-1153.987060546875	343.5852966308594	-288.6231384277344	-980.2911987304688	43.62608337402344	-310.842529296875	-1035.438842773438	52.50685882568359	-362.1181640625	-1080.291870117188	46.33906936645508	-275.5792541503906	-1221.383544921875	38.24697875976562	-381.4991455078125	
